<svg width="98" height="24" viewBox="0 0 98 24" fill="none" xmlns="http://www.w3.org/2000/svg">
<g clip-path="url(#clip0_2995_64662)">
<path d="M12 12H0V0C6.6269 0 12 5.3731 12 12Z" fill="#1AE6AF"/>
<path d="M12 12H0V24H12V12Z" fill="#1AE6AF"/>
<path d="M24 24H12V12C18.6269 12 24 17.3731 24 24Z" fill="#03A2F4"/>
</g>
<path d="M30.882 18V8.2H32.912V16.208H38.274V18H30.882ZM39.547 18V10.706H41.465V18H39.547ZM40.499 9.838C40.2003 9.838 39.9437 9.73067 39.729 9.516C39.5143 9.30133 39.407 9.04467 39.407 8.746C39.407 8.438 39.5143 8.18133 39.729 7.976C39.9437 7.76133 40.2003 7.654 40.499 7.654C40.807 7.654 41.0637 7.76133 41.269 7.976C41.4837 8.18133 41.591 8.438 41.591 8.746C41.591 9.04467 41.4837 9.30133 41.269 9.516C41.0637 9.73067 40.807 9.838 40.499 9.838ZM46.633 20.996C46.073 20.996 45.5317 20.9353 45.009 20.814C44.4863 20.702 44.015 20.5387 43.595 20.324L44.267 18.84C44.6683 19.036 45.0603 19.1807 45.443 19.274C45.8257 19.3673 46.2083 19.414 46.591 19.414C47.1603 19.414 47.5897 19.2927 47.879 19.05C48.1777 18.8073 48.327 18.4433 48.327 17.958V17.384C47.7297 17.8227 47.0623 18.042 46.325 18.042C45.6343 18.042 45.009 17.8787 44.449 17.552C43.8983 17.216 43.455 16.7633 43.119 16.194C42.7923 15.6247 42.629 14.9947 42.629 14.304C42.629 13.6133 42.7923 12.988 43.119 12.428C43.455 11.868 43.9077 11.4247 44.477 11.098C45.0463 10.762 45.681 10.594 46.381 10.594C46.7357 10.594 47.081 10.6453 47.417 10.748C47.753 10.8507 48.0657 10.9953 48.355 11.182V10.706H50.245V17.986C50.245 18.9473 49.9323 19.6893 49.307 20.212C48.691 20.7347 47.7997 20.996 46.633 20.996ZM46.619 16.418C46.9737 16.418 47.2957 16.362 47.585 16.25C47.8743 16.1287 48.1217 15.9607 48.327 15.746V12.89C48.1217 12.6847 47.8697 12.526 47.571 12.414C47.2817 12.2927 46.969 12.232 46.633 12.232C46.2317 12.232 45.8723 12.3253 45.555 12.512C45.2377 12.6893 44.9857 12.9367 44.799 13.254C44.6123 13.562 44.519 13.912 44.519 14.304C44.519 14.7053 44.6077 15.0647 44.785 15.382C44.9717 15.6993 45.2237 15.9513 45.541 16.138C45.8677 16.3247 46.227 16.418 46.619 16.418ZM51.7423 18V8.2L53.6603 7.78V11.308C54.211 10.8133 54.8923 10.566 55.7043 10.566C56.2737 10.566 56.773 10.692 57.2023 10.944C57.641 11.1867 57.9817 11.5273 58.2243 11.966C58.467 12.3953 58.5883 12.8993 58.5883 13.478V18H56.6703V13.758C56.6703 13.282 56.535 12.9087 56.2643 12.638C55.9937 12.358 55.625 12.218 55.1583 12.218C54.8317 12.218 54.5423 12.2833 54.2903 12.414C54.0383 12.5353 53.8283 12.7127 53.6603 12.946V18H51.7423ZM63.2941 18.112C62.4821 18.112 61.8661 17.93 61.4461 17.566C61.0354 17.1927 60.8301 16.6513 60.8301 15.942V12.302H59.3321V10.706H60.8301V8.844L62.7481 8.41V10.706H64.8341V12.302H62.7481V15.55C62.7481 15.886 62.8227 16.1287 62.9721 16.278C63.1214 16.418 63.3827 16.488 63.7561 16.488C63.9427 16.488 64.1107 16.4787 64.2601 16.46C64.4187 16.432 64.5914 16.3853 64.7781 16.32V17.902C64.5821 17.9673 64.3347 18.0187 64.0361 18.056C63.7467 18.0933 63.4994 18.112 63.2941 18.112ZM71.9601 18.098C71.2694 18.098 70.6441 17.93 70.0841 17.594C69.5241 17.258 69.0761 16.81 68.7401 16.25C68.4134 15.6807 68.2501 15.046 68.2501 14.346C68.2501 13.646 68.4134 13.016 68.7401 12.456C69.0761 11.8867 69.5287 11.4387 70.0981 11.112C70.6674 10.776 71.3067 10.608 72.0161 10.608C72.3707 10.608 72.7161 10.6593 73.0521 10.762C73.3974 10.8553 73.7147 10.9953 74.0041 11.182V10.706H75.9221V18H74.0321V17.398C73.4347 17.8647 72.7441 18.098 71.9601 18.098ZM72.2681 16.46C72.6227 16.46 72.9447 16.404 73.2341 16.292C73.5327 16.1707 73.7894 15.9933 74.0041 15.76V12.918C73.7894 12.7033 73.5327 12.5353 73.2341 12.414C72.9354 12.2927 72.6134 12.232 72.2681 12.232C71.8667 12.232 71.5027 12.3253 71.1761 12.512C70.8587 12.6893 70.6067 12.9413 70.4201 13.268C70.2334 13.5853 70.1401 13.9447 70.1401 14.346C70.1401 14.7473 70.2334 15.1067 70.4201 15.424C70.6067 15.7413 70.8587 15.9933 71.1761 16.18C71.5027 16.3667 71.8667 16.46 72.2681 16.46ZM77.4181 18V8.2L79.3361 7.878V11.294C79.9148 10.8367 80.5961 10.608 81.3801 10.608C82.0708 10.608 82.6961 10.776 83.2561 11.112C83.8161 11.448 84.2594 11.9007 84.5861 12.47C84.9221 13.03 85.0901 13.66 85.0901 14.36C85.0901 15.06 84.9221 15.6947 84.5861 16.264C84.2501 16.824 83.7974 17.272 83.2281 17.608C82.6588 17.9347 82.0241 18.098 81.3241 18.098C80.9601 18.098 80.6054 18.0467 80.2601 17.944C79.9148 17.8413 79.5974 17.692 79.3081 17.496V18H77.4181ZM81.0721 16.474C81.4734 16.474 81.8328 16.3807 82.1501 16.194C82.4768 16.0073 82.7334 15.7553 82.9201 15.438C83.1068 15.1207 83.2001 14.7613 83.2001 14.36C83.2001 13.9587 83.1068 13.5993 82.9201 13.282C82.7334 12.9553 82.4768 12.7033 82.1501 12.526C81.8328 12.3393 81.4734 12.246 81.0721 12.246C80.7174 12.246 80.3908 12.3067 80.0921 12.428C79.8028 12.54 79.5508 12.7127 79.3361 12.946V15.788C79.5414 16.0027 79.7934 16.1707 80.0921 16.292C80.4001 16.4133 80.7268 16.474 81.0721 16.474ZM86.2501 18V8.2L88.1681 7.878V18H86.2501ZM93.2381 18.14C92.5101 18.14 91.8474 17.972 91.2501 17.636C90.6621 17.3 90.1954 16.8473 89.8501 16.278C89.5048 15.7087 89.3321 15.0693 89.3321 14.36C89.3321 13.6507 89.4954 13.0113 89.8221 12.442C90.1581 11.8727 90.6108 11.42 91.1801 11.084C91.7494 10.748 92.3841 10.58 93.0841 10.58C93.7841 10.58 94.4048 10.7527 94.9461 11.098C95.4874 11.4433 95.9121 11.91 96.2201 12.498C96.5374 13.086 96.6961 13.7533 96.6961 14.5V15.004H91.2921C91.3761 15.2933 91.5114 15.5547 91.6981 15.788C91.8941 16.0213 92.1321 16.2033 92.4121 16.334C92.7014 16.4647 93.0094 16.53 93.3361 16.53C93.6628 16.53 93.9614 16.4787 94.2321 16.376C94.5121 16.2733 94.7501 16.1287 94.9461 15.942L96.2061 17.09C95.7581 17.454 95.2961 17.72 94.8201 17.888C94.3534 18.056 93.8261 18.14 93.2381 18.14ZM91.2641 13.632H94.8061C94.7408 13.3427 94.6194 13.0907 94.4421 12.876C94.2741 12.652 94.0688 12.4793 93.8261 12.358C93.5928 12.2273 93.3314 12.162 93.0421 12.162C92.7434 12.162 92.4728 12.2227 92.2301 12.344C91.9874 12.4653 91.7821 12.638 91.6141 12.862C91.4554 13.0767 91.3388 13.3333 91.2641 13.632Z" fill="#212224"/>
<defs>
<clipPath id="clip0_2995_64662">
<path d="M0 0H24V24H4C1.79086 24 0 22.2091 0 20V0Z" fill="white"/>
</clipPath>
</defs>
</svg>
