<svg width="36" height="24" viewBox="0 0 36 24" fill="none" xmlns="http://www.w3.org/2000/svg">
<g clip-path="url(#clip0_2838_1893)">
<path d="M17.7933 23.0241C17.6745 23.0241 17.5565 22.993 17.4524 22.933L16.367 22.2904C16.2049 22.1998 16.284 22.1677 16.3375 22.1492C16.5536 22.0735 16.5975 22.0564 16.8282 21.9254C16.8524 21.9116 16.8842 21.9165 16.909 21.9311L17.7428 22.4259C17.7729 22.4422 17.8156 22.4422 17.8436 22.4259L21.0947 20.5493C21.1248 20.5322 21.1443 20.4972 21.1443 20.4614V16.7098C21.1443 16.6724 21.1248 16.639 21.094 16.6203L17.8442 14.7453C17.8141 14.7274 17.7742 14.7274 17.7441 14.7453L14.495 16.6203C14.4635 16.6382 14.4434 16.6732 14.4434 16.709V20.4606C14.4434 20.4964 14.463 20.5306 14.4939 20.5477L15.3842 21.062C15.8676 21.3037 16.163 21.0189 16.163 20.7324V17.0296C16.163 16.9767 16.2045 16.936 16.2574 16.936H16.6692C16.7204 16.936 16.7628 16.9767 16.7628 17.0296V20.734C16.7628 21.3786 16.4112 21.7488 15.8 21.7488C15.612 21.7488 15.4639 21.7488 15.0505 21.5454L14.1977 21.0539C13.9869 20.9318 13.8567 20.7039 13.8567 20.4606V16.709C13.8567 16.4649 13.9869 16.237 14.1977 16.1165L17.452 14.2391C17.6579 14.1227 17.9314 14.1227 18.1356 14.2391L21.3859 16.1174C21.5959 16.2386 21.7269 16.4657 21.7269 16.7098V20.4614C21.7269 20.7047 21.5959 20.9318 21.3859 21.0539L18.1356 22.9313C18.0315 22.9915 17.9135 23.0224 17.793 23.0224" fill="#689F63"/>
<path d="M18.7977 20.439C17.3752 20.439 17.0769 19.786 17.0769 19.2384C17.0769 19.1863 17.1189 19.1448 17.1711 19.1448H17.591C17.6374 19.1448 17.6764 19.1785 17.6838 19.2244C17.7472 19.6523 17.936 19.8681 18.7962 19.8681C19.4814 19.8681 19.7728 19.7133 19.7728 19.3499C19.7728 19.1408 19.6898 18.9854 18.6253 18.8812C17.735 18.7933 17.1849 18.5972 17.1849 17.8851C17.1849 17.2292 17.7383 16.8386 18.6652 16.8386C19.706 16.8386 20.222 17.1999 20.2871 17.9762C20.2895 18.0031 20.2798 18.0291 20.2619 18.0487C20.244 18.0674 20.2187 18.0788 20.1927 18.0788H19.7703C19.7264 18.0788 19.6881 18.0479 19.6792 18.0055C19.5775 17.5555 19.3317 17.4115 18.6636 17.4115C17.9157 17.4115 17.8286 17.6719 17.8286 17.8672C17.8286 18.104 17.9311 18.1732 18.9403 18.3066C19.9396 18.4393 20.414 18.6265 20.414 19.3288C20.414 20.0368 19.8232 20.4429 18.793 20.4429M22.7529 16.4642H22.8619C22.9515 16.4642 22.9685 16.4015 22.9685 16.3649C22.9685 16.2689 22.9026 16.2689 22.866 16.2689H22.7537L22.7529 16.4642ZM22.6202 16.1566H22.8619C22.9449 16.1566 23.1077 16.1566 23.1077 16.3421C23.1077 16.4715 23.0247 16.4984 22.9751 16.5147C23.0719 16.5212 23.0784 16.5847 23.0914 16.6742C23.0979 16.7303 23.1085 16.8272 23.1281 16.8597H22.9791C22.9751 16.8272 22.9523 16.6481 22.9523 16.6384C22.9425 16.5985 22.9287 16.579 22.879 16.579H22.7561V16.8605H22.6202V16.1566ZM22.3297 16.5065C22.3297 16.7979 22.5649 17.0339 22.8538 17.0339C23.1451 17.0339 23.3803 16.793 23.3803 16.5065C23.3803 16.2144 23.1419 15.9824 22.853 15.9824C22.5682 15.9824 22.3289 16.2111 22.3289 16.5057M23.4812 16.5082C23.4812 16.8532 23.1988 17.1348 22.8546 17.1348C22.5128 17.1348 22.228 16.8565 22.228 16.5082C22.228 16.1533 22.5193 15.8815 22.8546 15.8815C23.1923 15.8815 23.4804 16.1542 23.4804 16.5082" fill="#689F63"/>
<path fill-rule="evenodd" clip-rule="evenodd" d="M7.72586 8.34486C7.72586 8.19512 7.64692 8.05759 7.51769 7.98313L4.07077 5.99991C4.01259 5.96573 3.9474 5.94782 3.88132 5.94538H3.84568C3.7796 5.94782 3.71441 5.96573 3.65525 5.99991L0.208495 7.98313C0.0800776 8.058 0 8.19553 0 8.34527L0.00756831 13.687C0.00756831 13.7611 0.0458167 13.8303 0.11092 13.8669C0.174397 13.9059 0.254149 13.9059 0.317625 13.8669L2.36676 12.6934C2.49616 12.6164 2.5751 12.4803 2.5751 12.3321V9.83655C2.5751 9.68763 2.65403 9.55009 2.78302 9.47604L3.65541 8.9736C3.72019 8.93617 3.79131 8.91761 3.86374 8.91761C3.93503 8.91761 4.00778 8.936 4.07077 8.97352L4.94276 9.47579C5.07182 9.54985 5.15109 9.68738 5.15109 9.83631V12.3316C5.15109 12.4798 5.23108 12.6165 5.35983 12.693L7.40766 13.8657C7.47195 13.9039 7.55195 13.9039 7.616 13.8657C7.67915 13.829 7.71918 13.7599 7.71918 13.6858L7.72586 8.34486ZM23.991 11.1261C23.991 11.1633 23.9713 11.1977 23.939 11.2161L22.7551 11.8985C22.7229 11.917 22.6832 11.917 22.6511 11.8985L21.4671 11.2161C21.4345 11.1976 21.415 11.1632 21.415 11.1261V9.75924C21.415 9.72197 21.4345 9.68763 21.4662 9.66891L22.6495 8.98532C22.6821 8.9666 22.7219 8.9666 22.7545 8.98532L23.9386 9.66891C23.9711 9.68763 23.9906 9.72197 23.9906 9.75924L23.991 11.1261ZM24.3109 1.0023C24.2463 0.966332 24.1676 0.967308 24.1038 1.0045C24.0404 1.04193 24.0011 1.11029 24.0011 1.18435V6.47402C24.0011 6.52611 23.9735 6.57412 23.9284 6.60016C23.8836 6.6262 23.8279 6.6262 23.7827 6.60016L22.9193 6.10285C22.7907 6.02847 22.6323 6.02847 22.5033 6.10285L19.0552 8.09283C18.9264 8.16688 18.8469 8.30442 18.8469 8.45253V12.4336C18.8469 12.5825 18.9264 12.7193 19.0552 12.7941L22.5033 14.7855C22.632 14.8595 22.7905 14.8595 22.9197 14.7855L26.3677 12.7933C26.4963 12.7184 26.5761 12.5817 26.5761 12.4328V2.511C26.5761 2.35996 26.4939 2.22104 26.362 2.14723L24.3109 1.0023ZM35.793 9.72327C35.9211 9.64889 35.9999 9.51152 35.9999 9.36341V8.39857C35.9999 8.25014 35.921 8.11317 35.7926 8.03847L32.3666 6.04955C32.2372 5.97468 32.0785 5.97468 31.9491 6.04955L28.5018 8.03928C28.3724 8.11415 28.2935 8.25087 28.2935 8.39979V12.3793C28.2935 12.529 28.3741 12.6673 28.5035 12.7414L31.9287 14.6937C32.0549 14.7661 32.2095 14.7669 32.3373 14.6961L34.4092 13.5446C34.4743 13.508 34.5158 13.4388 34.5158 13.364C34.5158 13.2891 34.4759 13.2191 34.4108 13.1825L30.9424 11.1919C30.8773 11.1553 30.8374 11.0861 30.8374 11.0121V9.76372C30.8374 9.68917 30.8765 9.62049 30.9416 9.58338L32.0207 8.96082C32.085 8.92339 32.1639 8.92339 32.2282 8.96082L33.3081 9.58338C33.3724 9.62 33.4123 9.68917 33.4123 9.76323V10.7447C33.4123 10.8187 33.4522 10.8879 33.5164 10.9253C33.5807 10.9619 33.6605 10.9619 33.7248 10.9245L35.793 9.72327Z" fill="#333333"/>
<path fill-rule="evenodd" clip-rule="evenodd" d="M32.1074 9.53709C32.1318 9.52269 32.1624 9.52269 32.1872 9.53709L32.8488 9.91876C32.8735 9.93309 32.8887 9.95945 32.8887 9.98794V10.7521C32.8887 10.7806 32.8735 10.8069 32.8488 10.8213L32.1872 11.2029C32.1624 11.2173 32.1318 11.2173 32.1074 11.2029L31.4462 10.8213C31.421 10.8069 31.4055 10.7806 31.4055 10.7521V9.98794C31.4055 9.95945 31.4202 9.93309 31.4454 9.91876L32.1074 9.53709Z" fill="#689F63"/>
<mask id="mask0_2838_1893" style="mask-type:luminance" maskUnits="userSpaceOnUse" x="9" y="6" width="9" height="9">
<path d="M13.0798 6.06942L9.65128 8.04833C9.52287 8.12239 9.44409 8.2591 9.44409 8.40689V12.3675C9.44409 12.5153 9.52287 12.652 9.65128 12.726L13.0801 14.7065C13.2082 14.7803 13.3663 14.7803 13.4943 14.7065L16.9225 12.726C17.0502 12.652 17.1292 12.5153 17.1292 12.3675V8.40689C17.1292 8.2591 17.0502 8.12239 16.9217 8.04833L13.4939 6.06942C13.4297 6.03256 13.358 6.01408 13.2864 6.01408C13.2148 6.01408 13.1432 6.03256 13.0789 6.06942" fill="white"/>
</mask>
<g mask="url(#mask0_2838_1893)">
<path d="M20.5938 7.71232L10.9328 2.97684L5.97925 13.0821L15.64 17.8178L20.5938 7.71232Z" fill="url(#paint0_linear_2838_1893)"/>
</g>
<mask id="mask1_2838_1893" style="mask-type:luminance" maskUnits="userSpaceOnUse" x="9" y="6" width="9" height="9">
<path d="M9.52905 12.6189C9.56185 12.6615 9.60286 12.6984 9.65112 12.726L12.5922 14.4248L13.0821 14.7064C13.1553 14.7487 13.2388 14.7666 13.3209 14.7605C13.3482 14.7583 13.3755 14.7532 13.4022 14.7456L17.0183 8.12458C16.9906 8.09447 16.9582 8.06925 16.9219 8.04809L14.677 6.75171L13.4903 6.06893C13.4566 6.0494 13.4201 6.03557 13.3829 6.0258L9.52905 12.6189Z" fill="white"/>
</mask>
<g mask="url(#mask1_2838_1893)">
<path d="M5.35205 9.11294L12.1737 18.3457L21.1954 11.6802L14.3734 2.44771L5.35205 9.11294Z" fill="url(#paint1_linear_2838_1893)"/>
</g>
<mask id="mask2_2838_1893" style="mask-type:luminance" maskUnits="userSpaceOnUse" x="9" y="6" width="9" height="9">
<path d="M13.2455 6.01636C13.188 6.02206 13.1317 6.03996 13.0799 6.06942L9.66113 8.04263L13.3476 14.7573C13.3989 14.7499 13.4494 14.7329 13.4949 14.7065L16.9235 12.726C17.0292 12.6647 17.1017 12.5608 17.1236 12.4432L13.3655 6.02312C13.3379 6.01766 13.3102 6.01482 13.2817 6.01482C13.2703 6.01482 13.2589 6.01539 13.2475 6.01644" fill="white"/>
</mask>
<g mask="url(#mask2_2838_1893)">
<path d="M9.66113 6.01482V14.7574H17.1223V6.01482H9.66113Z" fill="url(#paint2_linear_2838_1893)"/>
</g>
</g>
<defs>
<linearGradient id="paint0_linear_2838_1893" x1="15.7604" y1="5.33713" x2="10.8072" y2="15.4417" gradientUnits="userSpaceOnUse">
<stop offset="0.3" stop-color="#3E863D"/>
<stop offset="0.5" stop-color="#55934F"/>
<stop offset="0.8" stop-color="#5AAD45"/>
</linearGradient>
<linearGradient id="paint1_linear_2838_1893" x1="8.80376" y1="13.7822" x2="17.8259" y2="7.11599" gradientUnits="userSpaceOnUse">
<stop offset="0.57" stop-color="#3E863D"/>
<stop offset="0.72" stop-color="#619857"/>
<stop offset="1" stop-color="#76AC64"/>
</linearGradient>
<linearGradient id="paint2_linear_2838_1893" x1="9.66365" y1="10.3864" x2="17.1237" y2="10.3864" gradientUnits="userSpaceOnUse">
<stop offset="0.16" stop-color="#6BBF47"/>
<stop offset="0.38" stop-color="#79B461"/>
<stop offset="0.47" stop-color="#75AC64"/>
<stop offset="0.7" stop-color="#659E5A"/>
<stop offset="0.9" stop-color="#3E863D"/>
</linearGradient>
<clipPath id="clip0_2838_1893">
<rect width="36" height="22.0481" fill="white" transform="translate(0 0.975952)"/>
</clipPath>
</defs>
</svg>
