<svg width="748" height="252" viewBox="0 0 748 252" fill="none" xmlns="http://www.w3.org/2000/svg">
<mask id="mask0_2200_120308" style="mask-type:alpha" maskUnits="userSpaceOnUse" x="0" y="0" width="748" height="252">
<rect x="0.5" y="0.5" width="747" height="251" fill="url(#paint0_linear_2200_120308)" stroke="#DBE0E5"/>
</mask>
<g mask="url(#mask0_2200_120308)">
<g opacity="0.1">
<path d="M182.258 252.396C182.882 143.019 224.152 54.7021 274.435 55.108C324.717 55.5139 364.976 144.489 364.352 253.866C363.728 363.244 403.987 452.219 454.269 452.624C504.552 453.03 545.822 364.714 546.445 255.336L546.459 252.892C547.083 143.514 588.353 55.1973 638.636 55.6032C688.918 56.0092 729.177 144.984 728.553 254.361L728.609 244.583C727.985 353.96 768.243 442.935 818.526 443.341C868.809 443.747 910.078 355.43 910.702 246.053" stroke="url(#paint1_linear_2200_120308)" stroke-miterlimit="10"/>
<path d="M167.565 252.729C168.188 143.351 209.458 55.0346 259.741 55.4405C310.023 55.8464 350.282 144.821 349.658 254.199C349.034 363.576 389.293 452.551 439.575 452.957C489.858 453.363 531.128 365.046 531.752 255.669L531.766 253.224C532.389 143.847 573.659 55.5298 623.942 55.9358C674.224 56.3417 714.483 145.317 713.859 254.694L713.915 244.915C713.291 354.292 753.55 443.267 803.832 443.673C854.115 444.079 895.385 355.762 896.008 246.385" stroke="url(#paint2_linear_2200_120308)" stroke-miterlimit="10"/>
<path d="M152.92 253.066C153.544 143.688 194.814 55.3715 245.096 55.7774C295.379 56.1833 335.637 145.158 335.014 254.536C334.39 363.913 374.648 452.888 424.931 453.294C475.214 453.7 516.483 365.383 517.107 256.006L517.121 253.561C517.745 144.184 559.015 55.8668 609.297 56.2727C659.58 56.6786 699.838 145.654 699.215 255.031L699.27 245.252C698.646 354.629 738.905 443.604 789.188 444.01C839.47 444.416 880.74 356.099 881.364 246.722" stroke="url(#paint3_linear_2200_120308)" stroke-miterlimit="10"/>
<path d="M138.236 253.424C138.86 144.047 180.13 55.7298 230.412 56.1357C280.695 56.5416 320.953 145.517 320.33 254.894C319.706 364.271 359.964 453.246 410.247 453.652C460.529 454.058 501.799 365.741 502.423 256.364L502.437 253.919C503.061 144.542 544.331 56.225 594.613 56.631C644.896 57.0369 685.154 146.012 684.53 255.389L684.586 245.61C683.962 354.988 724.221 443.963 774.504 444.369C824.786 444.774 866.056 356.458 866.68 247.08" stroke="url(#paint4_linear_2200_120308)" stroke-miterlimit="10"/>
<path d="M123.576 253.748C124.2 144.371 165.47 56.0538 215.753 56.4597C266.035 56.8656 306.294 145.841 305.67 255.218C305.046 364.595 345.305 453.57 395.587 453.976C445.87 454.382 487.139 366.065 487.763 256.688L487.777 254.243C488.401 144.866 529.671 56.549 579.953 56.9549C630.236 57.3608 670.495 146.336 669.871 255.713L669.927 245.934C669.303 355.312 709.561 444.287 759.844 444.692C810.127 445.098 851.396 356.782 852.02 247.404" stroke="url(#paint5_linear_2200_120308)" stroke-miterlimit="10"/>
<path d="M108.887 254.076C109.511 144.699 150.781 56.3821 201.064 56.788C251.346 57.194 291.605 146.169 290.981 255.546C290.357 364.924 330.616 453.899 380.898 454.305C431.181 454.71 472.451 366.394 473.074 257.016L473.088 254.572C473.712 145.194 514.982 56.8774 565.265 57.2833C615.547 57.6892 655.806 146.664 655.182 256.042L655.238 246.263C654.614 355.64 694.872 444.615 745.155 445.021C795.438 445.427 836.707 357.11 837.331 247.733" stroke="url(#paint6_linear_2200_120308)" stroke-miterlimit="10"/>
<path d="M94.2424 254.413C94.8662 145.036 136.136 56.719 186.419 57.125C236.701 57.5309 276.96 146.506 276.336 255.883C275.712 365.261 315.971 454.236 366.253 454.641C416.536 455.047 457.806 366.73 458.429 257.353L458.443 254.908C459.067 145.531 500.337 57.2143 550.62 57.6202C600.902 58.0261 641.161 147.001 640.537 256.378L640.593 246.6C639.969 355.977 680.227 444.952 730.51 445.358C780.793 445.764 822.062 357.447 822.686 248.07" stroke="url(#paint7_linear_2200_120308)" stroke-miterlimit="10"/>
<path d="M79.5485 254.742C80.1724 145.364 121.442 57.0474 171.725 57.4533C222.007 57.8592 262.266 146.834 261.642 256.212C261.018 365.589 301.277 454.564 351.559 454.97C401.842 455.376 443.112 367.059 443.736 257.682L443.749 255.237C444.373 145.86 485.643 57.5427 535.926 57.9486C586.208 58.3545 626.467 147.33 625.843 256.707L625.899 246.928C625.275 356.305 665.533 445.28 715.816 445.686C766.099 446.092 807.368 357.775 807.992 248.398" stroke="url(#paint8_linear_2200_120308)" stroke-miterlimit="10"/>
<path d="M64.8937 255.074C65.5176 145.697 106.787 57.3801 157.07 57.786C207.353 58.1919 247.611 147.167 246.987 256.544C246.363 365.922 286.622 454.897 336.905 455.302C387.187 455.708 428.457 367.392 429.081 258.014L429.095 255.569C429.719 146.192 470.988 57.8753 521.271 58.2812C571.554 58.6871 611.812 147.662 611.188 257.039L611.244 247.261C610.62 356.638 650.879 445.613 701.161 446.019C751.444 446.425 792.714 358.108 793.337 248.731" stroke="url(#paint9_linear_2200_120308)" stroke-miterlimit="10"/>
<path d="M50.2053 255.437C50.8291 146.059 92.0988 57.7426 142.381 58.1485C192.664 58.5544 232.923 147.529 232.299 256.907C231.675 366.284 271.933 455.259 322.216 455.665C372.499 456.071 413.768 367.754 414.392 258.377L414.406 255.932C415.03 146.555 456.3 58.2379 506.582 58.6438C556.865 59.0497 597.124 148.025 596.5 257.402L596.555 247.623C595.932 357 636.19 445.975 686.473 446.381C736.755 446.787 778.025 358.47 778.649 249.093" stroke="url(#paint10_linear_2200_120308)" stroke-miterlimit="10"/>
<path d="M35.5637 255.774C36.1875 146.396 77.4572 58.0794 127.74 58.4853C178.022 58.8912 218.281 147.866 217.657 257.244C217.033 366.621 257.292 455.596 307.574 456.002C357.857 456.408 399.127 368.091 399.751 258.714L399.765 256.269C400.388 146.892 441.658 58.5746 491.941 58.9806C542.223 59.3865 582.482 148.362 581.858 257.739L581.914 247.96C581.29 357.337 621.549 446.312 671.831 446.718C722.114 447.124 763.384 358.807 764.007 249.43" stroke="url(#paint11_linear_2200_120308)" stroke-miterlimit="10"/>
<path d="M20.8713 256.102C21.4951 146.725 62.7648 58.4078 113.047 58.8137C163.33 59.2196 203.589 148.195 202.965 257.572C202.341 366.949 242.599 455.924 292.882 456.33C343.165 456.736 384.434 368.419 385.058 259.042L385.072 256.597C385.696 147.22 426.966 58.903 477.248 59.3089C527.531 59.7148 567.79 148.69 567.166 258.067L567.221 248.288C566.598 357.666 606.856 446.641 657.139 447.047C707.421 447.452 748.691 359.136 749.315 249.758" stroke="url(#paint12_linear_2200_120308)" stroke-miterlimit="10"/>
</g>
</g>
<defs>
<linearGradient id="paint0_linear_2200_120308" x1="215.457" y1="228" x2="480.259" y2="315.317" gradientUnits="userSpaceOnUse">
<stop stop-color="#131920"/>
<stop offset="1" stop-color="#1D2630"/>
</linearGradient>
<linearGradient id="paint1_linear_2200_120308" x1="851.615" y1="108.901" x2="868.356" y2="407.582" gradientUnits="userSpaceOnUse">
<stop stop-color="#1DE9B6"/>
<stop offset="1" stop-color="#1DC4E9"/>
</linearGradient>
<linearGradient id="paint2_linear_2200_120308" x1="836.922" y1="109.233" x2="853.663" y2="407.914" gradientUnits="userSpaceOnUse">
<stop stop-color="#1DE9B6"/>
<stop offset="1" stop-color="#1DC4E9"/>
</linearGradient>
<linearGradient id="paint3_linear_2200_120308" x1="822.277" y1="109.57" x2="839.018" y2="408.251" gradientUnits="userSpaceOnUse">
<stop stop-color="#1DE9B6"/>
<stop offset="1" stop-color="#1DC4E9"/>
</linearGradient>
<linearGradient id="paint4_linear_2200_120308" x1="807.593" y1="109.928" x2="824.334" y2="408.609" gradientUnits="userSpaceOnUse">
<stop stop-color="#1DE9B6"/>
<stop offset="1" stop-color="#1DC4E9"/>
</linearGradient>
<linearGradient id="paint5_linear_2200_120308" x1="792.933" y1="110.252" x2="809.674" y2="408.933" gradientUnits="userSpaceOnUse">
<stop stop-color="#1DE9B6"/>
<stop offset="1" stop-color="#1DC4E9"/>
</linearGradient>
<linearGradient id="paint6_linear_2200_120308" x1="778.244" y1="110.581" x2="794.985" y2="409.262" gradientUnits="userSpaceOnUse">
<stop stop-color="#1DE9B6"/>
<stop offset="1" stop-color="#1DC4E9"/>
</linearGradient>
<linearGradient id="paint7_linear_2200_120308" x1="763.599" y1="110.918" x2="780.34" y2="409.599" gradientUnits="userSpaceOnUse">
<stop stop-color="#1DE9B6"/>
<stop offset="1" stop-color="#1DC4E9"/>
</linearGradient>
<linearGradient id="paint8_linear_2200_120308" x1="748.905" y1="111.246" x2="765.647" y2="409.927" gradientUnits="userSpaceOnUse">
<stop stop-color="#1DE9B6"/>
<stop offset="1" stop-color="#1DC4E9"/>
</linearGradient>
<linearGradient id="paint9_linear_2200_120308" x1="734.251" y1="111.579" x2="750.992" y2="410.26" gradientUnits="userSpaceOnUse">
<stop stop-color="#1DE9B6"/>
<stop offset="1" stop-color="#1DC4E9"/>
</linearGradient>
<linearGradient id="paint10_linear_2200_120308" x1="719.562" y1="111.941" x2="736.303" y2="410.622" gradientUnits="userSpaceOnUse">
<stop stop-color="#1DE9B6"/>
<stop offset="1" stop-color="#1DC4E9"/>
</linearGradient>
<linearGradient id="paint11_linear_2200_120308" x1="704.921" y1="112.278" x2="721.662" y2="410.959" gradientUnits="userSpaceOnUse">
<stop stop-color="#1DE9B6"/>
<stop offset="1" stop-color="#1DC4E9"/>
</linearGradient>
<linearGradient id="paint12_linear_2200_120308" x1="690.228" y1="112.606" x2="706.969" y2="411.287" gradientUnits="userSpaceOnUse">
<stop stop-color="#1DE9B6"/>
<stop offset="1" stop-color="#1DC4E9"/>
</linearGradient>
</defs>
</svg>
