<svg width="40" height="40" viewBox="0 0 40 40" fill="none" xmlns="http://www.w3.org/2000/svg">
<path d="M5.68786 9.27273H8.30007L10.516 14.6761H10.6183L12.8342 9.27273H15.4464V18H13.3924V12.6392H13.32L11.2234 17.9446H9.91087L7.81428 12.6094H7.74183V18H5.68786V9.27273ZM18.7436 9.27273L20.6953 15.6648H20.7678L22.7195 9.27273H25.0803L22.1357 18H19.3274L16.3828 9.27273H18.7436ZM33.4261 12.4347H31.2955C31.267 12.2159 31.2088 12.0185 31.1207 11.8423C31.0327 11.6662 30.9162 11.5156 30.7713 11.3906C30.6264 11.2656 30.4545 11.1705 30.2557 11.1051C30.0597 11.0369 29.8423 11.0028 29.6037 11.0028C29.1804 11.0028 28.8153 11.1065 28.5085 11.3139C28.2045 11.5213 27.9702 11.821 27.8054 12.2131C27.6435 12.6051 27.5625 13.0795 27.5625 13.6364C27.5625 14.2159 27.6449 14.7017 27.8097 15.0938C27.9773 15.483 28.2116 15.777 28.5128 15.9759C28.8168 16.1719 29.1761 16.2699 29.5909 16.2699C29.8239 16.2699 30.0355 16.2401 30.2259 16.1804C30.419 16.1207 30.5881 16.0341 30.733 15.9205C30.8807 15.804 31.0014 15.6634 31.0952 15.4986C31.1918 15.331 31.2585 15.142 31.2955 14.9318L33.4261 14.9446C33.3892 15.331 33.277 15.7116 33.0895 16.0866C32.9048 16.4616 32.6506 16.804 32.3267 17.1136C32.0028 17.4205 31.608 17.6648 31.142 17.8466C30.679 18.0284 30.1477 18.1193 29.5483 18.1193C28.7585 18.1193 28.0511 17.946 27.4261 17.5994C26.804 17.25 26.3125 16.7415 25.9517 16.0739C25.5909 15.4062 25.4105 14.5937 25.4105 13.6364C25.4105 12.6761 25.5938 11.8622 25.9602 11.1946C26.3267 10.527 26.8224 10.0199 27.4474 9.6733C28.0724 9.3267 28.7727 9.15341 29.5483 9.15341C30.0767 9.15341 30.5653 9.22727 31.0142 9.375C31.4631 9.51989 31.858 9.73295 32.1989 10.0142C32.5398 10.2926 32.8168 10.6349 33.0298 11.0412C33.2429 11.4474 33.375 11.9119 33.4261 12.4347ZM19.541 30.1193C18.9047 30.1193 18.3393 30.0043 17.845 29.7741C17.3507 29.544 16.96 29.2273 16.6731 28.8239C16.389 28.4205 16.2413 27.9574 16.2299 27.4347H18.2754C18.2924 27.7557 18.4231 28.0142 18.6674 28.2102C18.9118 28.4034 19.2029 28.5 19.541 28.5C19.8052 28.5 20.0396 28.4418 20.2441 28.3253C20.4487 28.2088 20.6092 28.0455 20.7257 27.8352C20.8422 27.6222 20.899 27.3778 20.8961 27.1023C20.899 26.821 20.8407 26.5753 20.7214 26.3651C20.6049 26.1548 20.443 25.9915 20.2356 25.875C20.0311 25.7557 19.7953 25.696 19.5282 25.696C19.2754 25.6932 19.0353 25.7486 18.8081 25.8622C18.5836 25.9759 18.4132 26.1307 18.2967 26.3267L16.4345 25.9773L16.8137 21.2727H22.4132V22.973H18.5481L18.3478 25.0312H18.399C18.5439 24.7898 18.7768 24.5909 19.0978 24.4347C19.4217 24.2756 19.7896 24.196 20.2015 24.196C20.7243 24.196 21.1902 24.3182 21.5993 24.5625C22.0112 24.804 22.335 25.1392 22.5708 25.5682C22.8095 25.9972 22.9288 26.4886 22.9288 27.0426C22.9288 27.642 22.7868 28.1733 22.5027 28.6364C22.2214 29.0994 21.8265 29.4631 21.318 29.7273C20.8123 29.9886 20.22 30.1193 19.541 30.1193Z" fill="url(#paint0_linear_1051_753)"/>
<defs>
<linearGradient id="paint0_linear_1051_753" x1="10" y1="9" x2="20.5" y2="28" gradientUnits="userSpaceOnUse">
<stop stop-color="#0C5377"/>
<stop offset="1" stop-color="#072737"/>
</linearGradient>
</defs>
</svg>
