<svg width="44" height="36" viewBox="0 0 44 36" fill="none" xmlns="http://www.w3.org/2000/svg">
<g clip-path="url(#clip0_2838_1827)">
<mask id="mask0_2838_1827" style="mask-type:luminance" maskUnits="userSpaceOnUse" x="0" y="0" width="44" height="36">
<path d="M43.3571 0H0.5V36H43.3571V0Z" fill="white"/>
</mask>
<g mask="url(#mask0_2838_1827)">
<path d="M15.3846 13.7769C16.9291 18.5055 17.5143 26.941 22.0308 26.941C22.3747 26.941 22.7221 26.9072 23.0708 26.8407C18.9651 25.8824 18.4784 17.5387 15.9733 13.2179C15.7734 13.4004 15.5771 13.5867 15.3845 13.7769" fill="url(#paint0_linear_2838_1827)"/>
<path d="M15.9739 13.2178C18.4792 17.5387 18.9659 25.8823 23.0716 26.8406C23.394 26.7814 23.7174 26.6918 24.0412 26.5785C20.356 24.7711 19.3374 16.6686 16.4921 12.768C16.3165 12.9146 16.1437 13.0647 15.9739 13.218" fill="url(#paint1_linear_2838_1827)"/>
<path d="M19.5833 10.6494C19.2401 10.6494 18.8919 10.6832 18.5426 10.7497C17.6287 10.9221 16.7003 11.3161 15.7644 11.9122C16.0201 12.1647 16.2633 12.4538 16.4921 12.7693C17.4439 11.9785 18.3897 11.3942 19.3318 11.0429C19.6757 10.9141 20.0302 10.8155 20.3911 10.7481C20.1271 10.6816 19.8555 10.6485 19.5833 10.6494Z" fill="#14559A"/>
<path d="M26.918 24.9111C27.3106 24.5971 27.6886 24.2654 28.0512 23.9168C26.4817 19.2101 25.9201 10.654 21.3718 10.654C21.0466 10.654 20.7185 10.6844 20.3909 10.7451C24.534 11.7767 25.0647 20.8006 26.918 24.9111Z" fill="url(#paint2_linear_2838_1827)"/>
<path d="M20.3908 10.748C20.1268 10.6815 19.8554 10.6484 19.583 10.6494L21.3717 10.656C21.0465 10.656 20.7182 10.6864 20.3908 10.7478" fill="#3092C4"/>
<path d="M26.838 25.9119C26.6601 25.7422 26.4912 25.556 26.3251 25.3572C25.56 25.8996 24.798 26.3108 24.0403 26.5784C24.3106 26.7115 24.5971 26.809 24.8923 26.869C25.1311 26.9173 25.3743 26.9415 25.6179 26.9408C26.4679 26.9408 27.1397 26.84 27.7119 26.5654C27.3969 26.395 27.1082 26.174 26.838 25.9119Z" fill="#1969BC"/>
<path d="M19.332 11.0407C23.0426 12.9838 23.3652 21.7831 26.326 25.356C26.5276 25.2133 26.7249 25.0651 26.9176 24.9108C25.0641 20.8004 24.534 11.7757 20.392 10.7448C20.0308 10.8129 19.6761 10.9119 19.332 11.0407Z" fill="url(#paint3_linear_2838_1827)"/>
<path d="M16.4919 12.7674C19.3371 16.668 20.3558 24.7702 24.0411 26.5779C24.7987 26.3103 25.5608 25.8991 26.3258 25.3567C23.365 21.7838 23.0424 12.9846 19.3316 11.0416C18.3896 11.3922 17.4439 11.9765 16.4919 12.7673" fill="url(#paint4_linear_2838_1827)"/>
<path d="M13.5647 13.6611C13.1188 14.6706 12.6633 15.9974 12.1125 17.7293C13.2078 16.1845 14.2995 14.8533 15.3852 13.7751C15.2358 13.3149 15.0751 12.8905 14.902 12.5123C14.436 12.8709 13.9896 13.2544 13.565 13.6613" fill="url(#paint5_linear_2838_1827)"/>
<path d="M15.2974 12.2231C15.1641 12.318 15.0324 12.4151 14.9023 12.5143C15.0754 12.8924 15.2352 13.3167 15.3848 13.777C15.5777 13.5872 15.7739 13.4009 15.9734 13.218C15.7632 12.8565 15.5399 12.5226 15.2974 12.2231Z" fill="#2B74B1"/>
<path d="M15.7638 11.9098C15.6058 12.0103 15.4501 12.1142 15.2966 12.2216C15.5393 12.5211 15.7624 12.855 15.9735 13.2172C16.143 13.0633 16.3158 12.9131 16.4917 12.7667C16.263 12.4514 16.0198 12.1622 15.764 11.9096" fill="#125A9E"/>
<path d="M41.0756 10.2876C38.9768 18.3905 34.5934 24.8986 30.9183 26.5395H30.9116C30.8446 26.5699 30.7784 26.5975 30.713 26.6244C30.7039 26.6299 30.6956 26.6306 30.6888 26.6338C30.6696 26.6415 30.6516 26.6475 30.6324 26.6554C30.6233 26.6607 30.6152 26.6626 30.6068 26.6659C30.5758 26.677 30.5455 26.6863 30.5151 26.6984C30.5021 26.7041 30.4898 26.7074 30.4772 26.7118C30.4623 26.7175 30.4472 26.7224 30.4318 26.7266C30.4179 26.7319 30.4035 26.736 30.3876 26.7422C30.3744 26.7475 30.3607 26.7499 30.3483 26.7554C30.3214 26.7631 30.2967 26.7696 30.2698 26.7788C30.2587 26.7788 30.2484 26.785 30.2367 26.7881C30.2201 26.7934 30.2014 26.7974 30.1836 26.8023C30.1712 26.8078 30.161 26.8095 30.1478 26.8123C30.1292 26.8176 30.1085 26.8227 30.0898 26.8272L30.0195 26.8426C30.1879 26.9048 30.366 26.936 30.5453 26.935C34.0301 26.935 37.5437 20.6828 43.3575 10.2857H41.0748L41.0756 10.2876Z" fill="url(#paint6_linear_2838_1827)"/>
<path d="M11.3557 10.9766C11.3579 10.9766 11.3607 10.9712 11.3619 10.9712C11.3648 10.9712 11.369 10.9712 11.3704 10.9658H11.3747C11.3939 10.959 11.4118 10.9515 11.4312 10.9442C11.4362 10.9442 11.4388 10.9442 11.4423 10.9388C11.4472 10.9388 11.4519 10.9332 11.4568 10.9325C11.4774 10.926 11.4981 10.9182 11.5175 10.9111H11.5207C11.5668 10.8973 11.6097 10.8801 11.6543 10.864C11.6607 10.864 11.6668 10.8586 11.6744 10.8586C11.6929 10.8526 11.7123 10.846 11.7317 10.8416C11.7406 10.8361 11.7495 10.8361 11.7578 10.8332C11.7777 10.8273 11.7971 10.8205 11.8156 10.8161C11.824 10.8161 11.8314 10.8106 11.8377 10.8101C11.9017 10.7923 11.9652 10.7758 12.0293 10.7605C12.0382 10.7605 12.0458 10.7549 12.0554 10.7544C12.0739 10.749 12.0913 10.746 12.1114 10.7432C12.1196 10.7378 12.1292 10.7378 12.1388 10.735C12.1574 10.7296 12.1754 10.7289 12.1955 10.7245H12.2085C12.2472 10.7166 12.2865 10.7102 12.3251 10.7029H12.3485C12.367 10.6975 12.3835 10.6969 12.4023 10.6935C12.4124 10.6935 12.4228 10.6881 12.4326 10.6881C12.4498 10.6881 12.467 10.6825 12.4842 10.6803C12.4933 10.6803 12.502 10.6803 12.5125 10.6747C12.5531 10.6693 12.595 10.6671 12.6378 10.6638C12.5146 10.6514 12.3909 10.6449 12.2671 10.6444C8.3427 10.6444 2.93559 17.9343 0.5 27.3751H0.969356C1.74881 25.9834 2.44904 24.6668 3.08946 23.431C4.79516 16.7441 8.26955 12.1838 11.3559 10.9756" fill="url(#paint7_linear_2838_1827)"/>
<path d="M13.5647 13.6626C13.9894 13.2558 14.4357 12.8722 14.9017 12.5136C14.807 12.3025 14.7007 12.0968 14.5834 11.8975C14.2243 12.3336 13.8962 12.9091 13.5647 13.6626Z" fill="#0D82CA"/>
<path d="M13.8874 11.031C14.1435 11.2463 14.3732 11.5423 14.5834 11.8971C14.6496 11.8156 14.7166 11.7403 14.786 11.67C14.4945 11.3975 14.1796 11.1739 13.8376 11.0056C13.8515 11.0131 13.8653 11.0194 13.8796 11.0255C13.8796 11.0255 13.885 11.0309 13.8874 11.0309" fill="#0D82CA"/>
<path d="M3.08911 23.4324C6.66768 16.5287 8.36309 12.1595 11.3557 10.9767C8.27008 12.1858 4.79498 16.746 3.08928 23.4324" fill="url(#paint8_linear_2838_1827)"/>
<path d="M14.786 11.6706C14.7165 11.7416 14.6504 11.8162 14.5835 11.8977C14.7008 12.0971 14.8073 12.3028 14.9025 12.5137C15.0326 12.4146 15.1643 12.3175 15.2975 12.2227C15.1402 12.0269 14.9692 11.8424 14.786 11.6706Z" fill="#127BCA"/>
<path d="M4.71335 27.3451C4.69127 27.3506 4.66919 27.3506 4.64846 27.3528H4.63615C4.61745 27.3528 4.59808 27.3585 4.58089 27.3585H4.57195C4.52713 27.3639 4.48297 27.3639 4.44031 27.3672H4.42651C8.04837 27.2657 9.70386 25.4503 10.5256 22.8171C11.15 20.821 11.6627 19.1395 12.1121 17.7285C10.595 19.8662 9.0712 22.4143 7.53909 25.2691C6.80025 26.6448 5.67683 27.2194 4.71318 27.3425" fill="url(#paint9_linear_2838_1827)"/>
<path d="M4.71379 27.3453C5.67727 27.2223 6.80068 26.6484 7.53952 25.2717C9.07163 22.4179 10.5963 19.8689 12.1117 17.7312C12.6632 15.9985 13.1182 14.6723 13.5648 13.6628C10.5439 16.5416 7.51122 21.3283 4.71362 27.3439" fill="url(#paint10_linear_2838_1827)"/>
<path d="M3.08885 23.432C2.44844 24.6679 1.7482 25.9844 0.96875 27.3761H2.33401C2.50642 26.0477 2.7585 24.7308 3.08885 23.4327" fill="#05A1E6"/>
<path d="M12.5125 10.6775C12.5013 10.6775 12.4931 10.6829 12.4834 10.6829C12.4669 10.6884 12.4498 10.6884 12.4324 10.6901C12.4223 10.6901 12.4125 10.6901 12.4021 10.6957C12.3835 10.7011 12.3663 10.7016 12.3483 10.7052C12.34 10.7052 12.3318 10.7052 12.3249 10.7106C12.2856 10.7171 12.247 10.7244 12.2086 10.731H12.1954C12.1754 10.7365 12.1574 10.7394 12.1388 10.7421C12.1292 10.7475 12.1196 10.7475 12.1105 10.7497C12.092 10.7553 12.0734 10.7575 12.0554 10.7608C12.0458 10.7662 12.0382 10.7662 12.0293 10.7667C11.9652 10.7822 11.9017 10.7988 11.8377 10.8165C11.8309 10.8165 11.8238 10.8219 11.8156 10.8231C11.7964 10.8285 11.7777 10.834 11.7576 10.8401C11.7493 10.8457 11.7397 10.8457 11.7315 10.8479C11.7123 10.8532 11.6932 10.8589 11.6742 10.8649C11.6668 10.8649 11.6605 10.8703 11.6536 10.8703C11.6095 10.8869 11.566 10.9036 11.5205 10.9172C11.5013 10.9233 11.4805 10.9311 11.4598 10.9383C11.4516 10.9437 11.4441 10.9451 11.4345 10.9488C11.4151 10.9549 11.3958 10.9626 11.3779 10.9697C11.3712 10.9753 11.3641 10.9758 11.3594 10.9786C8.36678 12.1614 6.6712 16.5305 3.0928 23.4341C2.76216 24.7322 2.51015 26.0492 2.33813 27.3778H2.52974C3.06938 27.3778 3.22173 27.3722 3.84259 27.3722H4.44443C4.48706 27.3667 4.53122 27.3667 4.57588 27.3632H4.58429C4.60283 27.3632 4.62137 27.3578 4.63941 27.3578H4.65254C4.67243 27.3578 4.69519 27.3524 4.71725 27.35C7.51487 21.3344 10.5474 16.5477 13.5685 13.6689C13.9004 12.9156 14.2279 12.3401 14.5864 11.9046C14.3768 11.55 14.1472 11.2533 13.8909 11.038C13.8909 11.038 13.8839 11.038 13.8834 11.0325C13.8687 11.0266 13.8551 11.0193 13.8407 11.0122C13.8261 11.0043 13.8136 10.9982 13.7986 10.9906C13.7844 10.9847 13.7706 10.978 13.7572 10.9707C13.7393 10.9651 13.7248 10.9574 13.709 10.9503C13.6958 10.9447 13.6842 10.9392 13.6711 10.9338C13.6444 10.9234 13.6179 10.9123 13.5919 10.9005C13.5801 10.8951 13.5691 10.8921 13.5582 10.8879C13.5381 10.8806 13.5183 10.8727 13.4987 10.8643C13.4891 10.8587 13.4781 10.8575 13.467 10.8536C13.4388 10.8442 13.4113 10.8342 13.385 10.8254H13.3782C13.3465 10.815 13.3155 10.8072 13.2832 10.7984C13.2756 10.7929 13.2693 10.7929 13.2617 10.7917C13.2334 10.7841 13.2086 10.7765 13.1819 10.7693C13.175 10.7693 13.1687 10.7637 13.1633 10.7637C13.0974 10.7468 13.0309 10.7323 12.9639 10.7202C12.9572 10.7202 12.9502 10.7146 12.9434 10.7146C12.9148 10.7089 12.8861 10.7043 12.8573 10.7008C12.8502 10.6954 12.8461 10.6954 12.84 10.6954C12.8061 10.6902 12.7721 10.6857 12.7379 10.682H12.7201C12.6924 10.6766 12.667 10.6761 12.6415 10.6732C12.598 10.6786 12.5568 10.681 12.516 10.6849" fill="url(#paint11_linear_2838_1827)"/>
<path d="M32.8777 14.7713C32.189 16.9794 31.6314 18.8009 31.1462 20.2997C33.0354 17.6971 34.8964 14.4228 36.6685 10.6444C34.6014 11.2943 33.4986 12.7821 32.8777 14.7713Z" fill="url(#paint12_linear_2838_1827)"/>
<path d="M31.2057 26.4021C31.1094 26.4514 31.0129 26.4982 30.9177 26.5402C34.5926 24.8993 38.9762 18.3912 41.0749 10.2882H40.6496C35.8278 18.9113 34.277 24.684 31.2057 26.4021Z" fill="url(#paint13_linear_2838_1827)"/>
<path d="M28.8067 25.6769C29.6063 24.6998 30.2577 23.0388 31.1467 20.3014C30.1211 21.7119 29.0887 22.9243 28.0554 23.9131C28.0554 23.9186 28.0554 23.9186 28.05 23.922C28.2753 24.5983 28.5228 25.1949 28.8047 25.6766" fill="#079AE1"/>
<path d="M28.8062 25.6757C28.534 26.0081 28.2458 26.2617 27.9253 26.4492C27.855 26.49 27.784 26.5286 27.7117 26.5639C28.0595 26.7525 28.4401 26.8725 28.833 26.9177C28.8937 26.9237 28.9537 26.9294 29.0162 26.9337H29.0274C29.0557 26.9337 29.0852 26.9337 29.1157 26.9391H29.4148C29.4256 26.9391 29.4371 26.9391 29.4482 26.9337C29.4697 26.9337 29.4923 26.9337 29.5142 26.9282H29.547C29.5696 26.9282 29.5943 26.9229 29.6186 26.9203H29.624C29.6313 26.9203 29.639 26.915 29.6462 26.915C29.6714 26.9095 29.698 26.9073 29.7225 26.9033H29.7453C29.7734 26.898 29.8026 26.8944 29.8314 26.8891H29.8453C29.903 26.8779 29.9596 26.8671 30.0169 26.8526C29.5425 26.6787 29.1457 26.2689 28.8038 25.685" fill="#1969BC"/>
<path d="M22.0315 26.9395C22.3754 26.9395 22.7227 26.9059 23.0716 26.8388C23.3942 26.7802 23.7175 26.6902 24.0413 26.5772C24.3115 26.7101 24.5974 26.8076 24.8923 26.8678C25.1314 26.9162 25.3749 26.9402 25.619 26.9395H22.0315Z" fill="#1E5CB3"/>
<path d="M25.6189 26.9431C26.4682 26.9431 27.1407 26.8423 27.7121 26.5677C28.0599 26.7562 28.4406 26.8764 28.8336 26.9218C28.8941 26.9277 28.9541 26.9333 29.0168 26.9376H29.028C29.0561 26.9376 29.0857 26.9376 29.1161 26.9433H29.2193H25.6167H25.6189V26.9431Z" fill="#1E5CB3"/>
<path d="M29.2209 26.9385H29.4174C29.4291 26.9385 29.44 26.9385 29.4512 26.9331C29.4726 26.9331 29.4951 26.9331 29.5182 26.9275H29.5506C29.5732 26.9275 29.5979 26.9222 29.6216 26.9199H29.6276C29.6348 26.9199 29.642 26.9146 29.6492 26.9146C29.6745 26.909 29.7009 26.9067 29.7256 26.9026C29.734 26.9026 29.7405 26.9026 29.7493 26.8973C29.7774 26.892 29.8065 26.8891 29.8357 26.8838H29.8494C29.9073 26.8726 29.9637 26.8615 30.0208 26.8473C30.1892 26.9093 30.3671 26.9407 30.5466 26.9397L29.222 26.9451L29.2209 26.9385Z" fill="#1D60B5"/>
<path d="M28.0522 23.9232V23.9175C27.6898 24.2661 27.3118 24.5979 26.9193 24.9118C26.7261 25.0658 26.5287 25.2142 26.3271 25.3569C26.4933 25.5557 26.6621 25.7419 26.8401 25.9119C27.1101 26.1739 27.3989 26.3949 27.7138 26.5651C27.7857 26.5298 27.857 26.4914 27.9269 26.4506C28.2478 26.2629 28.536 26.0097 28.8082 25.6771C28.5264 25.1954 28.2792 24.5988 28.0536 23.9225" fill="#175FAB"/>
<path d="M39.3031 10.2882H37.1628C37.0471 10.2938 36.9348 10.2977 36.8239 10.3048C36.7714 10.4173 36.7176 10.5298 36.6658 10.643C34.894 14.4214 33.0331 17.6957 31.144 20.2983C30.2554 23.0355 29.6035 24.6965 28.804 25.6736C29.1458 26.2574 29.5435 26.6679 30.0163 26.8418C30.03 26.8363 30.0412 26.8363 30.0535 26.8334H30.0612C30.0696 26.8334 30.0784 26.8279 30.0873 26.8279C30.1065 26.8224 30.1274 26.819 30.1468 26.8131C30.1589 26.8076 30.1692 26.807 30.1817 26.803C30.1997 26.7975 30.2182 26.7938 30.2349 26.7893C30.246 26.7838 30.2568 26.7821 30.2678 26.7799C30.2954 26.771 30.3202 26.7645 30.3465 26.7561C30.3588 26.7507 30.372 26.7461 30.3859 26.7427C30.401 26.7374 30.4162 26.7336 30.43 26.7269C30.4459 26.7212 30.4617 26.7185 30.4754 26.7127C30.4879 26.707 30.5008 26.7036 30.5126 26.6988C30.5436 26.6876 30.574 26.6784 30.6048 26.6662C30.6134 26.6662 30.6216 26.6585 30.6305 26.6568C30.649 26.6489 30.6684 26.6429 30.6869 26.6347C30.6936 26.629 30.7022 26.6287 30.7111 26.6256C30.7759 26.5987 30.8428 26.5711 30.9096 26.5407H30.9165C31.0137 26.4975 31.1095 26.4516 31.204 26.4027C34.2758 24.6847 35.8269 18.912 40.6485 10.2889H39.3017L39.3034 10.2882H39.3031Z" fill="url(#paint14_linear_2838_1827)"/>
<path d="M12.6382 10.6682C12.6458 10.6682 12.6527 10.6682 12.6601 10.6736C12.6788 10.6736 12.6975 10.6736 12.716 10.6797H12.7346C12.7684 10.6851 12.8022 10.6881 12.8367 10.693C12.843 10.693 12.8485 10.693 12.8539 10.6984C12.8822 10.7038 12.9112 10.7085 12.94 10.7127C12.9462 10.7127 12.9545 10.7183 12.9614 10.7183C13.0276 10.7315 13.0952 10.7453 13.1599 10.7623C13.166 10.7623 13.1724 10.7679 13.1778 10.7679C13.2054 10.7745 13.2302 10.7827 13.2578 10.7905C13.2663 10.7905 13.2722 10.7959 13.2798 10.7973C13.3123 10.8055 13.3426 10.8138 13.3742 10.8243C13.3756 10.8243 13.3775 10.8243 13.3813 10.8297C13.4082 10.8379 13.4356 10.8484 13.4638 10.8578C13.4751 10.8632 13.4853 10.8656 13.4956 10.8683C13.515 10.8767 13.5364 10.8848 13.555 10.8926C13.5659 10.8926 13.5769 10.9003 13.5887 10.9044C13.6142 10.9159 13.641 10.9263 13.6672 10.9373C13.681 10.9429 13.6927 10.9491 13.706 10.954C13.7212 10.9618 13.7369 10.9688 13.7534 10.9742C13.7671 10.981 13.7823 10.9881 13.7955 10.9942C13.81 11.0021 13.8236 11.008 13.8376 11.0158C14.1794 11.1841 14.4943 11.4084 14.7859 11.6804C14.8903 11.5703 15.0027 11.4681 15.1221 11.3746C14.4845 10.9218 13.7624 10.6636 12.9291 10.6636C12.8324 10.6636 12.7361 10.6692 12.6382 10.6765" fill="#7DCBEC"/>
<path d="M14.7852 11.6727C14.9683 11.8445 15.1393 12.029 15.2966 12.2247C15.4499 12.117 15.6057 12.0129 15.7639 11.9126C15.5655 11.7126 15.3504 11.53 15.1209 11.3668C15.0014 11.4601 14.8892 11.5623 14.7852 11.6725" fill="#5EC5ED"/>
<path d="M12.6373 10.6684C12.735 10.6601 12.8316 10.6566 12.9282 10.6566C13.7614 10.6566 14.4837 10.9147 15.1213 11.3669C15.794 10.8354 16.6072 10.6498 17.7369 10.6498H12.2664C12.3928 10.6498 12.516 10.6574 12.6373 10.6684Z" fill="url(#paint15_linear_2838_1827)"/>
<path d="M17.7371 10.6469C16.6075 10.6469 15.7943 10.8325 15.1216 11.364C15.3507 11.5273 15.5657 11.7098 15.7639 11.9096C16.7004 11.3135 17.6282 10.9187 18.5431 10.7463C18.8858 10.681 19.234 10.6477 19.5828 10.6469H17.7371Z" fill="url(#paint16_linear_2838_1827)"/>
<path d="M31.1462 20.3019C31.632 18.8019 32.1883 16.9809 32.8781 14.7721C33.5001 12.782 34.6005 11.2944 36.6676 10.6452C36.7221 10.534 36.7737 10.4194 36.8268 10.307C33.4572 10.5092 31.8823 12.2253 31.0898 14.7666C29.7038 19.2032 28.8641 22.0793 28.0557 23.912C29.0882 22.9239 30.1207 21.7109 31.1462 20.3019Z" fill="url(#paint17_linear_2838_1827)"/>
<path d="M36.0899 25.7595H35.7081V26.9479H35.5524V25.7595H35.1689V25.6181H36.0899V25.7595ZM37.6535 26.9475H37.4983V26.0547C37.4983 25.9843 37.5038 25.898 37.511 25.7965C37.4951 25.8572 37.4819 25.8994 37.4697 25.9265L37.0176 26.9475H36.9417L36.4884 25.934C36.4749 25.9059 36.4619 25.8601 36.4475 25.7967H36.4421C36.4475 25.8502 36.4493 25.9368 36.4493 26.0568V26.9477H36.3004V25.6179H36.5057L36.9131 26.5459C36.9439 26.6156 36.9633 26.6695 36.9731 26.7053H36.9791C37.006 26.6321 37.0281 26.5776 37.043 26.5417L37.4587 25.6179H37.6545V26.9475H37.6535Z" fill="black"/>
</g>
</g>
<defs>
<linearGradient id="paint0_linear_2838_1827" x1="19.2274" y1="10.5397" x2="19.2274" y2="31.0064" gradientUnits="userSpaceOnUse">
<stop stop-color="#0994DC"/>
<stop offset="0.35001" stop-color="#66CEF5"/>
<stop offset="0.84616" stop-color="#127BCA"/>
<stop offset="1" stop-color="#127BCA"/>
</linearGradient>
<linearGradient id="paint1_linear_2838_1827" x1="20.0076" y1="10.0216" x2="20.0076" y2="31.0095" gradientUnits="userSpaceOnUse">
<stop stop-color="#0E76BC"/>
<stop offset="0.36" stop-color="#36AEE8"/>
<stop offset="0.84616" stop-color="#00ADEF"/>
<stop offset="1" stop-color="#00ADEF"/>
</linearGradient>
<linearGradient id="paint2_linear_2838_1827" x1="24.2209" y1="26.4684" x2="24.2209" y2="9.76807" gradientUnits="userSpaceOnUse">
<stop stop-color="#1C63B7"/>
<stop offset="0.5" stop-color="#33BDF2"/>
<stop offset="1" stop-color="#33BDF2" stop-opacity="0.42"/>
</linearGradient>
<linearGradient id="paint3_linear_2838_1827" x1="23.1249" y1="7.89346" x2="23.1249" y2="29.6847" gradientUnits="userSpaceOnUse">
<stop stop-color="#166AB8"/>
<stop offset="0.39999" stop-color="#36AEE8"/>
<stop offset="0.84616" stop-color="#0798DD"/>
<stop offset="1" stop-color="#0798DD"/>
</linearGradient>
<linearGradient id="paint4_linear_2838_1827" x1="21.4088" y1="8.00872" x2="21.4088" y2="31.181" gradientUnits="userSpaceOnUse">
<stop stop-color="#124379"/>
<stop offset="0.39" stop-color="#1487CB"/>
<stop offset="0.78023" stop-color="#165197"/>
<stop offset="1" stop-color="#165197"/>
</linearGradient>
<linearGradient id="paint5_linear_2838_1827" x1="12.1125" y1="15.1209" x2="15.3852" y2="15.1209" gradientUnits="userSpaceOnUse">
<stop stop-color="#33BDF2" stop-opacity="0.698"/>
<stop offset="1" stop-color="#1DACD8"/>
</linearGradient>
<linearGradient id="paint6_linear_2838_1827" x1="36.6898" y1="26.0504" x2="36.6898" y2="9.78207" gradientUnits="userSpaceOnUse">
<stop stop-color="#136AB4"/>
<stop offset="0.6" stop-color="#59CAF5" stop-opacity="0.549"/>
<stop offset="1" stop-color="#59CAF5" stop-opacity="0.235"/>
</linearGradient>
<linearGradient id="paint7_linear_2838_1827" x1="0.499879" y1="19.0097" x2="12.6377" y2="19.0097" gradientUnits="userSpaceOnUse">
<stop stop-color="#05A1E6" stop-opacity="0.247"/>
<stop offset="1" stop-color="#05A1E6"/>
</linearGradient>
<linearGradient id="paint8_linear_2838_1827" x1="7.22224" y1="26.4609" x2="7.22224" y2="9.80327" gradientUnits="userSpaceOnUse">
<stop stop-color="#318ED5"/>
<stop offset="1" stop-color="#38A7E4"/>
</linearGradient>
<linearGradient id="paint9_linear_2838_1827" x1="8.26926" y1="26.519" x2="8.26926" y2="10.3272" gradientUnits="userSpaceOnUse">
<stop stop-color="#05A1E6"/>
<stop offset="1" stop-color="#05A1E6" stop-opacity="0.549"/>
</linearGradient>
<linearGradient id="paint10_linear_2838_1827" x1="9.13921" y1="27.3466" x2="9.13921" y2="13.6642" gradientUnits="userSpaceOnUse">
<stop stop-color="#1959A6"/>
<stop offset="0.5" stop-color="#05A1E6"/>
<stop offset="0.91759" stop-color="#7EC5EA"/>
<stop offset="1" stop-color="#7EC5EA"/>
</linearGradient>
<linearGradient id="paint11_linear_2838_1827" x1="9.66307" y1="26.4703" x2="5.02079" y2="12.2994" gradientUnits="userSpaceOnUse">
<stop stop-color="#165096"/>
<stop offset="1" stop-color="#0D82CA"/>
</linearGradient>
<linearGradient id="paint12_linear_2838_1827" x1="33.9071" y1="18.0788" x2="33.9071" y2="10.3258" gradientUnits="userSpaceOnUse">
<stop stop-color="#05A1E6"/>
<stop offset="0.87363" stop-color="#0495D6"/>
<stop offset="1" stop-color="#0495D6"/>
</linearGradient>
<linearGradient id="paint13_linear_2838_1827" x1="37.5465" y1="9.61197" x2="30.3155" y2="25.6491" gradientUnits="userSpaceOnUse">
<stop stop-color="#38A7E4" stop-opacity="0.329"/>
<stop offset="0.96153" stop-color="#0E88D3"/>
<stop offset="1" stop-color="#0E88D3"/>
</linearGradient>
<linearGradient id="paint14_linear_2838_1827" x1="34.7282" y1="10.2392" x2="34.7282" y2="27.1534" gradientUnits="userSpaceOnUse">
<stop stop-color="#168CD4"/>
<stop offset="0.5" stop-color="#1C87CC"/>
<stop offset="1" stop-color="#154B8D"/>
</linearGradient>
<linearGradient id="paint15_linear_2838_1827" x1="13.1785" y1="9.89283" x2="13.2518" y2="11.6671" gradientUnits="userSpaceOnUse">
<stop stop-color="#97D6EE"/>
<stop offset="0.70329" stop-color="#55C1EA"/>
<stop offset="1" stop-color="#55C1EA"/>
</linearGradient>
<linearGradient id="paint16_linear_2838_1827" x1="15.4289" y1="11.83" x2="15.7605" y2="9.95114" gradientUnits="userSpaceOnUse">
<stop stop-color="#7ACCEC"/>
<stop offset="1" stop-color="#3FB7ED"/>
</linearGradient>
<linearGradient id="paint17_linear_2838_1827" x1="32.441" y1="11.1727" x2="32.441" y2="27.7162" gradientUnits="userSpaceOnUse">
<stop stop-color="#1DA7E7"/>
<stop offset="1" stop-color="#37ABE7" stop-opacity="0"/>
</linearGradient>
<clipPath id="clip0_2838_1827">
<rect width="42.8571" height="36" fill="white" transform="translate(0.5)"/>
</clipPath>
</defs>
</svg>
