<svg width="35" height="36" viewBox="0 0 35 36" fill="none" xmlns="http://www.w3.org/2000/svg">
<g clip-path="url(#clip0_2838_1870)">
<path d="M34.7377 8.21358C34.7506 8.26128 34.7572 8.31046 34.7573 8.35987V16.0402C34.7573 16.1387 34.7313 16.2356 34.6819 16.3209C34.6324 16.4062 34.5614 16.4769 34.4759 16.526L28.0297 20.2373V27.5935C28.0297 27.7937 27.9233 27.9785 27.7497 28.0793L14.2938 35.8254C14.263 35.8429 14.2294 35.8541 14.1958 35.866C14.1832 35.8702 14.1713 35.8779 14.158 35.8814C14.0639 35.9061 13.9651 35.9061 13.871 35.8814C13.8556 35.8772 13.8416 35.8688 13.8269 35.8632C13.7961 35.852 13.7639 35.8422 13.7345 35.8254L0.281396 28.0793C0.195932 28.0302 0.124921 27.9594 0.075518 27.8741C0.0261155 27.7889 6.77166e-05 27.692 0 27.5935L0 4.55263C0 4.50223 0.0069999 4.45323 0.0195997 4.40563C0.0237996 4.38953 0.0335995 4.37483 0.0391994 4.35873C0.0496993 4.32934 0.0594991 4.29924 0.0748989 4.27194C0.0853987 4.25374 0.100798 4.23904 0.113398 4.22224C0.129498 4.19984 0.144198 4.17674 0.163098 4.15714C0.179197 4.14104 0.200197 4.12914 0.218397 4.11514C0.238696 4.09834 0.256896 4.08014 0.279996 4.06684L7.00759 0.193797C7.09277 0.144784 7.18932 0.118988 7.28759 0.118988C7.38586 0.118988 7.48241 0.144784 7.56759 0.193797L14.2945 4.06684H14.2959C14.3183 4.08084 14.3372 4.09834 14.3575 4.11444C14.3757 4.12844 14.396 4.14104 14.4121 4.15644C14.4317 4.17674 14.4457 4.19984 14.4625 4.22224C14.4744 4.23904 14.4905 4.25374 14.5003 4.27194C14.5164 4.29994 14.5255 4.32934 14.5367 4.35873C14.5423 4.37483 14.5521 4.38953 14.5563 4.40633C14.5692 4.45404 14.5758 4.50322 14.5759 4.55263V18.9437L20.1814 15.7161V8.35917C20.1814 8.31018 20.1884 8.26048 20.201 8.21358C20.2059 8.19678 20.215 8.18208 20.2206 8.16598C20.2318 8.13658 20.2416 8.10648 20.257 8.07918C20.2675 8.06098 20.2829 8.04628 20.2948 8.02948C20.3116 8.00708 20.3256 7.98398 20.3452 7.96438C20.3613 7.94828 20.3816 7.93638 20.3998 7.92238C20.4208 7.90558 20.439 7.88738 20.4614 7.87408L27.1897 4.00104C27.2748 3.95196 27.3714 3.92612 27.4697 3.92612C27.568 3.92612 27.6645 3.95196 27.7497 4.00104L34.4766 7.87408C34.5004 7.88808 34.5186 7.90558 34.5396 7.92168C34.5571 7.93568 34.5774 7.94828 34.5935 7.96368C34.6131 7.98398 34.6271 8.00708 34.6439 8.02948C34.6565 8.04628 34.6719 8.06098 34.6817 8.07918C34.6978 8.10648 34.7069 8.13658 34.7181 8.16598C34.7244 8.18208 34.7335 8.19678 34.7377 8.21358ZM33.6359 15.7161V9.32936L31.2818 10.6845L28.0297 12.557V18.9437L33.6366 15.7161H33.6359ZM26.909 27.2694V20.8785L23.71 22.7055L14.5752 27.919V34.3701L26.909 27.2694ZM1.12138 5.52212V27.2694L13.4538 34.3694V27.9197L7.01109 24.2734L7.00899 24.272L7.00619 24.2706C6.9845 24.258 6.9663 24.2398 6.946 24.2244C6.9285 24.2104 6.9082 24.1992 6.8928 24.1838L6.8914 24.1817C6.8732 24.1642 6.8606 24.1425 6.8452 24.1229C6.8312 24.104 6.8144 24.0879 6.8032 24.0683L6.8025 24.0662C6.7899 24.0452 6.7822 24.02 6.7731 23.9962C6.764 23.9752 6.7521 23.9556 6.7465 23.9332C6.7395 23.9066 6.7381 23.8779 6.7353 23.8506C6.7325 23.8296 6.7269 23.8086 6.7269 23.7876V8.74977L3.47545 6.8766L1.12138 5.52212ZM7.28829 1.32638L1.68347 4.55263L7.28689 7.77888L12.891 4.55193L7.28689 1.32638H7.28829ZM10.203 21.4609L13.4545 19.5891V5.52212L11.1004 6.8773L7.84828 8.74977V22.8168L10.203 21.4609ZM27.4697 5.13362L21.8656 8.35987L27.4697 11.5861L33.0731 8.35917L27.4697 5.13362ZM26.909 12.557L23.6568 10.6845L21.3028 9.32936V15.7161L24.5542 17.5878L26.909 18.9437V12.557ZM14.0138 26.9495L22.2338 22.2568L26.3427 19.9118L20.7428 16.6877L14.2952 20.3997L8.41877 23.7827L14.0138 26.9495Z" fill="#FF2D20"/>
</g>
<defs>
<clipPath id="clip0_2838_1870">
<rect width="34.8192" height="36" fill="white"/>
</clipPath>
</defs>
</svg>
