<svg width="19" height="27" viewBox="0 0 19 27" fill="none" xmlns="http://www.w3.org/2000/svg">
<g clip-path="url(#clip0_1382_120101)">
<path d="M4.71805 26.84C7.28091 26.84 9.36091 24.8987 9.36091 22.5067V18.1733H4.71805C2.1552 18.1733 0.0751953 20.1147 0.0751953 22.5067C0.0751953 24.8987 2.1552 26.84 4.71805 26.84Z" fill="#0ACF83"/>
<path d="M0.0751953 13.8402C0.0751953 11.4482 2.1552 9.50684 4.71805 9.50684H9.36091V18.1735H4.71805C2.1552 18.1735 0.0751953 16.2322 0.0751953 13.8402Z" fill="#A259FF"/>
<path d="M0.0751953 5.17342C0.0751953 2.78142 2.1552 0.840088 4.71805 0.840088H9.36091V9.50675H4.71805C2.1552 9.50675 0.0751953 7.56542 0.0751953 5.17342Z" fill="#F24E1E"/>
<path d="M9.36084 0.840088H14.0037C16.5666 0.840088 18.6466 2.78142 18.6466 5.17342C18.6466 7.56542 16.5666 9.50675 14.0037 9.50675H9.36084V0.840088Z" fill="#FF7262"/>
<path d="M18.6466 13.8402C18.6466 16.2322 16.5666 18.1735 14.0037 18.1735C11.4408 18.1735 9.36084 16.2322 9.36084 13.8402C9.36084 11.4482 11.4408 9.50684 14.0037 9.50684C16.5666 9.50684 18.6466 11.4482 18.6466 13.8402Z" fill="#1ABCFE"/>
</g>
<defs>
<clipPath id="clip0_1382_120101">
<rect width="18.5751" height="26" fill="white" transform="translate(0.0732422 0.840088)"/>
</clipPath>
</defs>
</svg>
