<svg width="37" height="26" viewBox="0 0 37 26" fill="none" xmlns="http://www.w3.org/2000/svg">
<g clip-path="url(#clip0_2838_1913)">
<path d="M34.1339 20.4287V15.478C34.1339 16.644 32.8571 17.7149 30.7257 18.5617L18.5 15.478V20.4287L30.7257 23.5125C32.8571 22.6669 34.1339 21.596 34.1339 20.4287Z" fill="#D32F2F"/>
<path d="M30.7257 13.6149C32.8572 12.7629 34.1339 11.6972 34.1339 10.5299V5.57262C34.1339 2.84451 27.1313 0.623199 18.5001 0.623199C9.86236 0.623199 2.86621 2.84321 2.86621 5.57131V10.5299C2.86621 13.2619 9.86627 15.4793 18.5001 15.4793V10.5325L30.7257 13.6149ZM18.5001 25.3768V20.4287C9.86236 20.4287 2.86621 18.2074 2.86621 15.4806V20.4287C2.86621 23.1607 9.86236 25.3768 18.5001 25.3768Z" fill="#D32F2F"/>
</g>
<defs>
<clipPath id="clip0_2838_1913">
<rect width="36" height="24.7536" fill="white" transform="translate(0.5 0.623199)"/>
</clipPath>
</defs>
</svg>
