<svg width="43" height="36" viewBox="0 0 43 36" fill="none" xmlns="http://www.w3.org/2000/svg">
<path d="M21 25.9076C10.9043 25.9076 3 22.4642 3 18.0816C3 13.6989 10.9043 10.2555 21 10.2555C31.0957 10.2555 39 13.6989 39 18.0816C39 22.4642 31.0957 25.9076 21 25.9076ZM21 11.8207C11.1391 11.8207 4.56522 15.0294 4.56522 18.0816C4.56522 21.1337 11.1391 24.3424 21 24.3424C30.8609 24.3424 37.4348 21.1337 37.4348 18.0816C37.4348 15.0294 30.8609 11.8207 21 11.8207Z" fill="#61DAFB"/>
<path d="M14.0353 34.2034C13.2527 34.2034 12.6266 34.0469 12.0006 33.6556C8.16577 31.4642 9.18316 22.9338 14.1919 14.1686C16.5397 10.099 19.4353 6.65554 22.2527 4.46424C25.3049 2.11641 28.044 1.41206 29.9223 2.50771C31.8788 3.60337 32.5832 6.3425 32.1136 10.1773C31.644 13.7773 30.0788 18.0034 27.731 22.0729C25.3832 26.1425 22.4875 29.586 19.6701 31.7773C17.6353 33.3425 15.6788 34.2034 14.0353 34.2034ZM27.9658 3.5251C26.7136 3.5251 25.0701 4.22945 23.2701 5.63815C20.6092 7.75119 17.8701 11.0382 15.6006 14.9512C10.6701 23.4816 10.2006 30.8382 12.7832 32.3251C14.1136 33.1077 16.3049 32.4034 18.731 30.5251C21.3919 28.4121 24.131 25.1251 26.4006 21.2121C28.6701 17.299 30.1571 13.3077 30.6266 9.9425C31.0179 6.81206 30.5484 4.62076 29.2179 3.83815C28.8266 3.68163 28.4353 3.5251 27.9658 3.5251Z" fill="#61DAFB"/>
<path d="M28.0431 34.2035C24.13 34.2035 18.4952 29.4296 14.2691 21.9948C9.18218 13.2296 8.16479 4.69914 11.9996 2.50783C15.8344 0.316529 22.7213 5.40349 27.8083 14.1687C30.1561 18.2383 31.7213 22.4644 32.1909 26.0644C32.7387 29.8991 31.9561 32.56 29.9996 33.7339C29.3735 34.047 28.7474 34.2035 28.0431 34.2035ZM12.7822 3.83827C10.1996 5.32523 10.6691 12.6817 15.5996 21.2122C20.53 29.7426 26.6344 33.8122 29.217 32.3252C30.5474 31.5426 31.017 29.3513 30.6257 26.2209C30.1561 22.8557 28.6691 18.8644 26.3996 14.9513C21.4691 6.42088 15.3648 2.35131 12.7822 3.83827Z" fill="#61DAFB"/>
<path d="M20.9988 21.2111C22.7277 21.2111 24.1293 19.8095 24.1293 18.0806C24.1293 16.3517 22.7277 14.9502 20.9988 14.9502C19.27 14.9502 17.8684 16.3517 17.8684 18.0806C17.8684 19.8095 19.27 21.2111 20.9988 21.2111Z" fill="#61DAFB"/>
</svg>
