<svg width="47" height="36" viewBox="0 0 47 36" fill="none" xmlns="http://www.w3.org/2000/svg">
<path fill-rule="evenodd" clip-rule="evenodd" d="M9.71009 0C7.04261 0 5.0688 2.25693 5.15719 4.70451C5.24201 7.05597 5.1318 10.1015 4.3387 12.585C3.54276 15.0756 2.19761 16.6539 0 16.8564V19.1436C2.19761 19.3466 3.54276 20.924 4.33861 23.415C5.1318 25.8985 5.24192 28.944 5.15709 31.2955C5.06871 33.7427 7.04252 36 9.71046 36H37.0433C39.7108 36 41.6843 33.7431 41.5959 31.2955C41.511 28.944 41.6213 25.8985 42.4144 23.415C43.2103 20.924 44.5522 19.3459 46.7499 19.1436V16.8564C44.5522 16.6534 43.2104 15.076 42.4144 12.585C41.6212 10.1018 41.511 7.05597 41.5959 4.70451C41.6843 2.25728 39.7108 0 37.0433 0H9.71009ZM31.6949 22.1604C31.6949 25.5306 29.0943 27.5745 24.7786 27.5745H17.4321C17.222 27.5745 17.0204 27.4938 16.8718 27.3502C16.7232 27.2065 16.6398 27.0117 16.6398 26.8086V9.19153C16.6398 8.98839 16.7232 8.79356 16.8718 8.64992C17.0204 8.50627 17.222 8.42557 17.4321 8.42557H24.7368C28.3353 8.42557 30.697 10.3098 30.697 13.2028C30.697 15.2333 29.1083 17.0512 27.0842 17.3696V17.4755C29.8396 17.7677 31.6949 19.6124 31.6949 22.1604ZM23.9776 10.8536H19.7887V16.5732H23.3168C26.0441 16.5732 27.548 15.5116 27.548 13.6139C27.5477 11.8356 26.2548 10.8536 23.9776 10.8536ZM19.7887 18.8426V25.1456H24.1317C26.9714 25.1456 28.4755 24.0442 28.4755 21.9742C28.4755 19.9042 26.9292 18.8422 23.9491 18.8422L19.7887 18.8426Z" fill="#8712FB"/>
</svg>
