<svg width="30" height="32" viewBox="0 0 30 32" fill="none" xmlns="http://www.w3.org/2000/svg">
<path d="M22.4862 7.38462H10.473V24.6154V32H3.08031V0H22.4862V7.38462Z" fill="url(#paint0_linear_12_2)"/>
<path d="M19.4059 0H26.7987V32H7.39273V24.6154H19.4059V0Z" fill="#017EEE"/>
<path d="M19.4059 0H26.7987V32H7.39273V24.6154H19.4059V0Z" fill="url(#paint1_linear_12_2)"/>
<path d="M19.4059 7.38462H7.39274V24.6154V32H0V0H19.4059V7.38462Z" fill="url(#paint2_linear_12_2)"/>
<path d="M22.4863 0H29.879V32H10.4731V24.6154H22.4863V0Z" fill="url(#paint3_linear_12_2)"/>
<path d="M19.4059 0V7.38462H7.39274V32H0V0H19.4059Z" fill="url(#paint4_linear_12_2)"/>
<path d="M7.39274 24.6154V32H0V12.3077L0.3912 13.7631C1.54016 18.0215 3.98592 21.8123 7.39274 24.6154Z" fill="url(#paint5_linear_12_2)"/>
<defs>
<linearGradient id="paint0_linear_12_2" x1="-4.80057" y1="33.8799" x2="8.81033" y2="12.8122" gradientUnits="userSpaceOnUse">
<stop stop-color="#00F9A3"/>
<stop offset="0.1242" stop-color="#00EEA8"/>
<stop offset="0.3455" stop-color="#00CFB6"/>
<stop offset="0.6381" stop-color="#009ECC"/>
<stop offset="0.9875" stop-color="#005AEA"/>
<stop offset="0.9969" stop-color="#0058EB"/>
</linearGradient>
<linearGradient id="paint1_linear_12_2" x1="4.90837" y1="16.0001" x2="15.2533" y2="16.0001" gradientUnits="userSpaceOnUse">
<stop stop-color="#1D002A"/>
<stop offset="1" stop-color="#5E42A4" stop-opacity="0"/>
</linearGradient>
<linearGradient id="paint2_linear_12_2" x1="0.0624687" y1="33.7026" x2="10.8417" y2="0.0720892" gradientUnits="userSpaceOnUse">
<stop stop-color="#00F9A3"/>
<stop offset="0.1242" stop-color="#00EEA8"/>
<stop offset="0.3455" stop-color="#00CFB6"/>
<stop offset="0.6381" stop-color="#009ECC"/>
<stop offset="0.9875" stop-color="#005AEA"/>
<stop offset="0.9969" stop-color="#0058EB"/>
</linearGradient>
<linearGradient id="paint3_linear_12_2" x1="30.5845" y1="3.22382" x2="18.0247" y2="33.5576" gradientUnits="userSpaceOnUse">
<stop stop-color="#2AB6F7"/>
<stop offset="1" stop-color="#3FECC1"/>
</linearGradient>
<linearGradient id="paint4_linear_12_2" x1="26.7918" y1="18.6081" x2="11.6925" y2="16.2987" gradientUnits="userSpaceOnUse">
<stop stop-color="#1D002A"/>
<stop offset="1" stop-color="#5E42A4" stop-opacity="0"/>
</linearGradient>
<linearGradient id="paint5_linear_12_2" x1="7.77337" y1="33.743" x2="-2.67345" y2="18.1348" gradientUnits="userSpaceOnUse">
<stop stop-color="#1D002A" stop-opacity="0.5"/>
<stop offset="1" stop-color="#00BABB" stop-opacity="0"/>
</linearGradient>
</defs>
</svg>
