<svg width="33" height="28" viewBox="0 0 33 28" fill="none" xmlns="http://www.w3.org/2000/svg">
<path d="M0.392578 0.065918L4.52481 2.82074V16.5948L0.392578 13.84V0.065918Z" fill="#29B6F6"/>
<path d="M32.0731 10.3965L27.9409 13.1513V22.1045L32.0731 19.3497V10.3965Z" fill="#0288D1"/>
<path d="M32.0731 0.754639L27.9409 3.50946V8.33039L32.0731 5.57557V0.754639Z" fill="#0288D1"/>
<path d="M23.8078 0.065918L19.6755 2.82074V16.5948L23.8078 13.84V0.065918Z" fill="#0288D1"/>
<path d="M0.392578 4.88685L12.1006 12.4626V7.64167L0.392578 0.065918V4.88685Z" fill="#29B6F6"/>
<path d="M23.8078 4.88685L12.0999 12.4626V7.64167L23.8078 0.065918V4.88685Z" fill="#0288D1"/>
<path d="M23.8078 14.5287L12.0999 22.1045V17.2835L23.8078 9.70776V14.5287Z" fill="#0288D1"/>
<path d="M32.0725 20.0385L20.3645 27.6142V22.7933L32.0725 15.2175V20.0385Z" fill="#0288D1"/>
<path d="M20.3643 22.6315L12.0999 17.2837V22.1046L20.3643 27.4524V22.6315Z" fill="#29B6F6"/>
</svg>
