<svg width="29" height="36" viewBox="0 0 29 36" fill="none" xmlns="http://www.w3.org/2000/svg">
<path d="M13.1994 0H19.0939V27.0166C16.0746 27.5877 13.8519 27.8124 11.447 27.8124C4.24761 27.8049 0.5 24.5886 0.5 18.4114C0.5 12.4596 4.47519 8.59695 10.6352 8.59695C11.5912 8.59695 12.3194 8.67218 13.1994 8.89755V0ZM13.4059 13.7662C12.7156 13.5408 12.1467 13.4656 11.4183 13.4656C8.437 13.4656 6.71493 15.2842 6.71493 18.4712C6.71493 21.5741 8.36121 23.2875 11.3805 23.2875C12.0328 23.2875 12.5639 23.2507 13.4059 23.138V13.7662Z" fill="#2BA977"/>
<path d="M28.7338 9.32229V22.8491C28.7338 27.5075 28.3848 29.7477 27.3607 31.6791C26.4048 33.5359 25.1455 34.7068 22.5434 36L17.0737 33.4225C19.6758 32.2132 20.9351 31.1447 21.7393 29.514C22.5812 27.8465 22.8468 25.9151 22.8468 20.8351V9.3224H28.7338V9.32229ZM22.2528 0H28.1473V5.98934H22.2528V0Z" fill="#2BA977"/>
</svg>
