<svg width="33" height="32" viewBox="0 0 33 32" fill="none" xmlns="http://www.w3.org/2000/svg">
<path d="M16.4884 31.68C7.74025 31.68 0.648438 24.5882 0.648438 15.84C0.648438 7.09181 7.74025 0 16.4884 0C25.2366 0 32.3284 7.09181 32.3284 15.84C32.3284 24.5882 25.2366 31.68 16.4884 31.68Z" fill="#FFD600"/>
<path d="M18.7885 18.6334C19.3975 19.6225 20.0592 20.5702 21.4611 20.5702C22.6385 20.5702 23.2563 19.985 23.2563 19.1754C23.2563 18.2066 22.6174 17.8625 21.322 17.2984L20.6119 16.9957C18.5623 16.1262 17.1992 15.0368 17.1992 12.7356C17.1992 10.6148 18.8228 9.00088 21.3599 9.00088C23.1665 9.00088 24.4645 9.62656 25.4008 11.2651L23.1885 12.6793C22.7019 11.8098 22.1756 11.4675 21.3599 11.4675C20.5274 11.4675 20.0003 11.9929 20.0003 12.6793C20.0003 13.5276 20.5283 13.8708 21.7471 14.3962L22.4572 14.6989C24.8728 15.7276 26.2351 16.7783 26.2351 19.1402C26.2351 21.6852 24.2251 23.08 21.5271 23.08C18.8879 23.08 17.3893 21.7556 16.555 20.1162L18.7885 18.6334ZM8.59281 18.7055C9.03809 19.5028 9.71481 20.1162 10.6881 20.1162C11.6191 20.1162 12.155 19.7483 12.155 18.3183V9H15.0881V18.7689C15.0881 21.7318 13.3694 23.08 10.8597 23.08C8.59193 23.08 6.95513 21.5435 6.28809 20.1162L8.59281 18.7055Z" fill="#000001"/>
</svg>
