<svg width="31" height="31" viewBox="0 0 31 31" fill="none" xmlns="http://www.w3.org/2000/svg">
<path d="M0.328369 15.8401C0.328369 24.1244 7.0441 30.8401 15.3284 30.8401C23.6126 30.8401 30.3284 24.1244 30.3284 15.8401C30.3284 7.55582 23.6126 0.840088 15.3284 0.840088C7.0441 0.840088 0.328369 7.55582 0.328369 15.8401Z" fill="#1976D2"/>
<path d="M15.6604 9.36C15.6604 8.60889 15.0515 8 14.3004 8H5.96791C5.2168 8 4.60791 8.60889 4.60791 9.36C4.60791 10.1111 5.2168 10.72 5.96791 10.72H6.58999C7.68467 10.72 8.57208 11.6074 8.57208 12.7021V21.4296C8.57208 22.2969 9.27518 23 10.1425 23C11.0098 23 11.7129 22.2969 11.7129 21.4296V12.6938C11.7129 11.6037 12.5966 10.72 13.6867 10.72H14.3004C15.0515 10.72 15.6604 10.1111 15.6604 9.36Z" fill="#141414"/>
<path d="M25.4902 9.37798C25.4569 10.2638 24.4197 10.8249 23.5637 10.5949C23.1559 10.4854 22.7061 10.4097 22.2415 10.4097C20.5582 10.4097 19.9523 11.2097 19.9523 12.0647C19.9523 14.2714 26.1032 14.0505 26.1032 18.4914C26.1032 24.0691 19.8684 23.0818 17.566 22.5271C17.0598 22.4051 16.7248 21.9453 16.7248 21.4246C16.7248 20.434 17.93 19.7822 18.8753 20.0782C19.4158 20.2474 20.0264 20.368 20.669 20.368C22.8198 20.368 22.7382 18.9614 22.7382 18.768C22.7382 16.7272 16.6423 16.7272 16.6423 12.203C16.6423 7.24736 22.4078 7.85968 24.6483 8.28474C25.166 8.38296 25.51 8.85141 25.4902 9.37798Z" fill="#141414"/>
</svg>
