<svg width="40" height="40" viewBox="0 0 40 40" fill="none" xmlns="http://www.w3.org/2000/svg">
<path d="M14.25 35.9997C17.1467 35.9997 19.5 33.6117 19.5 30.6663V25.333H14.25C11.3533 25.333 9 27.721 9 30.6663C9 33.6117 11.3533 35.9997 14.25 35.9997Z" fill="#0ACF83"/>
<path d="M9 20.0003C9 17.0576 11.3533 14.667 14.25 14.667H19.5V25.3337H14.25C11.3533 25.3337 9 22.9456 9 20.0003Z" fill="#A259FF"/>
<path d="M9 9.33334C9 6.39063 11.3533 4 14.25 4H19.5V14.6667H14.25C11.3533 14.6667 9 12.2787 9 9.33334Z" fill="#F24E1E"/>
<path d="M19.5 4H24.75C27.6467 4 30 6.39063 30 9.33334C30 12.2787 27.6493 14.6667 24.75 14.6667H19.5V4Z" fill="#FF7262"/>
<path d="M30 20.0003C30 22.9456 27.6493 25.3337 24.75 25.3337C21.8507 25.3337 19.5 22.9456 19.5 20.0003C19.5 17.0576 21.8507 14.667 24.75 14.667C27.6493 14.667 30 17.0576 30 20.0003Z" fill="#1ABCFE"/>
</svg>
