<svg width="31" height="28" viewBox="0 0 31 28" fill="none" xmlns="http://www.w3.org/2000/svg">
<path d="M15.0732 20.345C6.6602 20.345 0.0732422 17.4754 0.0732422 13.8233C0.0732422 10.1711 6.6602 7.30151 15.0732 7.30151C23.4863 7.30151 30.0732 10.1711 30.0732 13.8233C30.0732 17.4754 23.4863 20.345 15.0732 20.345ZM15.0732 8.60586C6.85585 8.60586 1.37759 11.2798 1.37759 13.8233C1.37759 16.3667 6.85585 19.0406 15.0732 19.0406C23.2906 19.0406 28.7689 16.3667 28.7689 13.8233C28.7689 11.2798 23.2906 8.60586 15.0732 8.60586Z" fill="#61DAFB"/>
<path d="M9.26944 27.2579C8.61726 27.2579 8.09552 27.1275 7.57378 26.8014C4.37813 24.9753 5.22596 17.8666 9.39987 10.5623C11.3564 7.17098 13.7694 4.30142 16.1173 2.47533C18.6607 0.518806 20.9434 -0.068151 22.5086 0.844893C24.139 1.75794 24.726 4.04055 24.3347 7.2362C23.9434 10.2362 22.639 13.7579 20.6825 17.1492C18.726 20.5406 16.3129 23.4101 13.9651 25.2362C12.2694 26.5406 10.639 27.2579 9.26944 27.2579ZM20.8781 1.69272C19.8347 1.69272 18.4651 2.27968 16.9651 3.45359C14.7477 5.21446 12.4651 7.95359 10.5738 11.2145C6.46509 18.3232 6.07378 24.4536 8.22596 25.6927C9.33465 26.3449 11.1607 25.7579 13.1825 24.1927C15.3999 22.4319 17.6825 19.6927 19.5738 16.4319C21.4651 13.171 22.7042 9.8449 23.0955 7.04055C23.4216 4.43185 23.0303 2.60576 21.9216 1.95359C21.5955 1.82315 21.2694 1.69272 20.8781 1.69272Z" fill="#61DAFB"/>
<path d="M20.9425 27.2581C17.6817 27.2581 12.986 23.2799 9.46428 17.0842C5.22514 9.77985 4.37732 2.67116 7.57297 0.84507C10.7686 -0.981018 16.5078 3.25811 20.7469 10.5625C22.7034 13.9538 24.0078 17.4755 24.3991 20.4755C24.8556 23.6712 24.2034 25.8886 22.573 26.8668C22.0512 27.1277 21.5295 27.2581 20.9425 27.2581ZM8.22514 1.95377C6.07297 3.1929 6.46428 9.32333 10.573 16.432C14.6817 23.5407 19.7686 26.932 21.9208 25.6929C23.0295 25.0407 23.4208 23.2146 23.0947 20.6059C22.7034 17.8016 21.4643 14.4755 19.573 11.2146C15.4643 4.10594 10.3773 0.714635 8.22514 1.95377Z" fill="#61DAFB"/>
<path d="M15.0721 16.4313C16.5128 16.4313 17.6808 15.2633 17.6808 13.8226C17.6808 12.3818 16.5128 11.2139 15.0721 11.2139C13.6313 11.2139 12.4634 12.3818 12.4634 13.8226C12.4634 15.2633 13.6313 16.4313 15.0721 16.4313Z" fill="#61DAFB"/>
</svg>
